<svg xmlns="http://www.w3.org/2000/svg" viewBox="0 0 960 540" width="960" height="540">
  <defs>
    <linearGradient id="dc-bg" x1="0" y1="0" x2="0" y2="1">
      <stop offset="0%" stop-color="#36393f"/>
      <stop offset="100%" stop-color="#2f3136"/>
    </linearGradient>
  </defs>

  <!-- Background -->
  <rect width="960" height="540" fill="#36393f"/>

  <!-- Channel sidebar -->
  <rect x="0" y="0" width="240" height="540" fill="#2f3136"/>

  <!-- Server header -->
  <rect x="0" y="0" width="240" height="48" fill="#2f3136"/>
  <text x="16" y="30" fill="#ffffff" font-family="Arial,sans-serif" font-size="14" font-weight="bold">RoleVerse Campaign</text>
  <line x1="0" y1="48" x2="240" y2="48" stroke="#202225" stroke-width="2"/>

  <!-- Text channels -->
  <text x="16" y="72" fill="#8e9297" font-family="Arial,sans-serif" font-size="10" font-weight="bold" text-transform="uppercase">▾ TEXT CHANNELS</text>
  <text x="28" y="96" fill="#8e9297" font-family="Arial,sans-serif" font-size="13"># general</text>
  <rect x="16" y="104" width="208" height="28" rx="4" fill="#393c43"/>
  <text x="28" y="122" fill="#ffffff" font-family="Arial,sans-serif" font-size="13"># game-session</text>
  <text x="28" y="148" fill="#8e9297" font-family="Arial,sans-serif" font-size="13"># character-sheets</text>
  <text x="28" y="172" fill="#8e9297" font-family="Arial,sans-serif" font-size="13"># lore-and-notes</text>

  <!-- Voice channels -->
  <text x="16" y="208" fill="#8e9297" font-family="Arial,sans-serif" font-size="10" font-weight="bold">▾ VOICE CHANNELS</text>
  <text x="28" y="232" fill="#ffffff" font-family="Arial,sans-serif" font-size="13">🔊 Game Table</text>

  <!-- Users in voice channel -->
  <rect x="36" y="240" width="190" height="24" rx="3" fill="transparent"/>
  <circle cx="50" cy="252" r="8" fill="#5865f2"/>
  <text x="50" y="256" fill="white" font-family="Arial,sans-serif" font-size="8" text-anchor="middle">T</text>
  <text x="66" y="256" fill="#43b581" font-family="Arial,sans-serif" font-size="11">Thorin (DM)</text>
  <text x="200" y="256" fill="#43b581" font-family="Arial,sans-serif" font-size="9">🎤</text>

  <rect x="36" y="266" width="190" height="24" rx="3" fill="transparent"/>
  <circle cx="50" cy="278" r="8" fill="#ed4245"/>
  <text x="50" y="282" fill="white" font-family="Arial,sans-serif" font-size="8" text-anchor="middle">E</text>
  <text x="66" y="282" fill="#43b581" font-family="Arial,sans-serif" font-size="11">Elara</text>
  <text x="200" y="282" fill="#43b581" font-family="Arial,sans-serif" font-size="9">🎤</text>

  <rect x="36" y="292" width="190" height="24" rx="3" fill="transparent"/>
  <circle cx="50" cy="304" r="8" fill="#faa61a"/>
  <text x="50" y="308" fill="white" font-family="Arial,sans-serif" font-size="8" text-anchor="middle">G</text>
  <text x="66" y="308" fill="#43b581" font-family="Arial,sans-serif" font-size="11">Grog</text>
  <text x="200" y="308" fill="#43b581" font-family="Arial,sans-serif" font-size="9">🎤</text>

  <!-- User panel -->
  <rect x="0" y="488" width="240" height="52" fill="#292b2f"/>
  <circle cx="26" cy="514" r="16" fill="#5865f2"/>
  <text x="26" y="518" fill="white" font-family="Arial,sans-serif" font-size="11" text-anchor="middle" font-weight="bold">T</text>
  <circle cx="38" cy="524" r="5" fill="#43b581" stroke="#292b2f" stroke-width="2"/>
  <text x="52" y="510" fill="#ffffff" font-family="Arial,sans-serif" font-size="12" font-weight="bold">Thorin</text>
  <text x="52" y="524" fill="#b9bbbe" font-family="Arial,sans-serif" font-size="10">Online</text>
  <text x="178" y="518" fill="#b9bbbe" font-family="Arial,sans-serif" font-size="14">🎤 🎧 ⚙</text>

  <!-- Main chat area -->
  <rect x="240" y="0" width="720" height="540" fill="url(#dc-bg)"/>

  <!-- Channel header -->
  <rect x="240" y="0" width="720" height="48" fill="#36393f"/>
  <line x1="240" y1="48" x2="960" y2="48" stroke="#202225" stroke-width="2"/>
  <text x="260" y="30" fill="#ffffff" font-family="Arial,sans-serif" font-size="14" font-weight="bold"># game-session</text>
  <text x="400" y="30" fill="#8e9297" font-family="Arial,sans-serif" font-size="12">| Voice chat transcribed to RoleVerse web app</text>

  <!-- RoleVerse Bot message -->
  <g transform="translate(260, 68)">
    <circle cx="20" cy="20" r="16" fill="#e3a72f"/>
    <text x="20" y="24" fill="#503d2e" font-family="Arial,sans-serif" font-size="12" text-anchor="middle" font-weight="bold">RV</text>
    <text x="46" y="16" fill="#e3a72f" font-family="Arial,sans-serif" font-size="13" font-weight="bold">RoleVerse Bot</text>
    <rect x="140" y="5" width="30" height="16" rx="3" fill="#5865f2"/>
    <text x="147" y="17" fill="white" font-family="Arial,sans-serif" font-size="8" font-weight="bold">BOT</text>
    <text x="180" y="16" fill="#72767d" font-family="Arial,sans-serif" font-size="10">Today at 7:30 PM</text>

    <!-- Embed -->
    <rect x="46" y="28" width="500" height="70" rx="4" fill="#2f3136" stroke-left="#e3a72f"/>
    <rect x="46" y="28" width="4" height="70" fill="#e3a72f"/>
    <text x="62" y="48" fill="#e3a72f" font-family="Arial,sans-serif" font-size="11" font-weight="bold">⚔ Session Active — The Lost Mines of Phandelver</text>
    <text x="62" y="66" fill="#dcddde" font-family="Arial,sans-serif" font-size="11">Voice channel connected. Speech-to-text active.</text>
    <text x="62" y="84" fill="#dcddde" font-family="Arial,sans-serif" font-size="11">Player messages will appear in the web app chat.</text>
  </g>

  <!-- Player voice message transcribed -->
  <g transform="translate(260, 175)">
    <circle cx="20" cy="20" r="16" fill="#ed4245"/>
    <text x="20" y="25" fill="white" font-family="Arial,sans-serif" font-size="14" text-anchor="middle" font-weight="bold">E</text>
    <text x="46" y="16" fill="#ffffff" font-family="Arial,sans-serif" font-size="13" font-weight="bold">Elara</text>
    <text x="86" y="16" fill="#72767d" font-family="Arial,sans-serif" font-size="10">Today at 7:42 PM</text>
    <text x="46" y="36" fill="#dcddde" font-family="Arial,sans-serif" font-size="13">I cast Detect Magic as we walk and look for any magical auras in the forest.</text>
  </g>

  <!-- Bot indicator -->
  <g transform="translate(260, 225)">
    <circle cx="20" cy="20" r="16" fill="#e3a72f"/>
    <text x="20" y="24" fill="#503d2e" font-family="Arial,sans-serif" font-size="12" text-anchor="middle" font-weight="bold">RV</text>
    <text x="46" y="16" fill="#e3a72f" font-family="Arial,sans-serif" font-size="13" font-weight="bold">RoleVerse Bot</text>
    <rect x="140" y="5" width="30" height="16" rx="3" fill="#5865f2"/>
    <text x="147" y="17" fill="white" font-family="Arial,sans-serif" font-size="8" font-weight="bold">BOT</text>
    <text x="180" y="16" fill="#72767d" font-family="Arial,sans-serif" font-size="10">Today at 7:42 PM</text>
    <text x="46" y="36" fill="#dcddde" font-family="Arial,sans-serif" font-size="13">🎤 Transcribed Elara's voice to web app chat</text>
  </g>

  <!-- Player typed message in Discord -->
  <g transform="translate(260, 280)">
    <circle cx="20" cy="20" r="16" fill="#5865f2"/>
    <text x="20" y="25" fill="white" font-family="Arial,sans-serif" font-size="14" text-anchor="middle" font-weight="bold">T</text>
    <text x="46" y="16" fill="#ffffff" font-family="Arial,sans-serif" font-size="13" font-weight="bold">Thorin (DM)</text>
    <text x="136" y="16" fill="#72767d" font-family="Arial,sans-serif" font-size="10">Today at 7:44 PM</text>
    <text x="46" y="36" fill="#dcddde" font-family="Arial,sans-serif" font-size="13">Everyone roll perception checks!</text>
  </g>

  <!-- AI narrator response -->
  <g transform="translate(260, 336)">
    <circle cx="20" cy="20" r="16" fill="#e3a72f"/>
    <text x="20" y="24" fill="#503d2e" font-family="Arial,sans-serif" font-size="12" text-anchor="middle" font-weight="bold">RV</text>
    <text x="46" y="16" fill="#e3a72f" font-family="Arial,sans-serif" font-size="13" font-weight="bold">RoleVerse Bot</text>
    <rect x="140" y="5" width="30" height="16" rx="3" fill="#5865f2"/>
    <text x="147" y="17" fill="white" font-family="Arial,sans-serif" font-size="8" font-weight="bold">BOT</text>
    <text x="180" y="16" fill="#72767d" font-family="Arial,sans-serif" font-size="10">Today at 7:44 PM</text>

    <!-- Narrator embed -->
    <rect x="46" y="28" width="500" height="85" rx="4" fill="#2f3136"/>
    <rect x="46" y="28" width="4" height="85" fill="#fbbf24"/>
    <text x="62" y="48" fill="#fbbf24" font-family="Arial,sans-serif" font-size="11" font-weight="bold">📖 Narrator</text>
    <text x="62" y="66" fill="#dcddde" font-family="Georgia,serif" font-size="11" font-style="italic">A raspy voice calls from the shadows: "Who dares enter</text>
    <text x="62" y="82" fill="#dcddde" font-family="Georgia,serif" font-size="11" font-style="italic">the Mistwood at this hour? Turn back, or face what</text>
    <text x="62" y="98" fill="#dcddde" font-family="Georgia,serif" font-size="11" font-style="italic">sleeps beneath the roots..."</text>
  </g>

  <!-- Input bar -->
  <rect x="256" y="488" width="688" height="44" rx="8" fill="#40444b"/>
  <text x="274" y="514" fill="#72767d" font-family="Arial,sans-serif" font-size="13">Message #game-session</text>

  <!-- Voice connection bar -->
  <rect x="240" y="446" width="720" height="36" fill="#292b2f"/>
  <circle cx="260" cy="464" r="6" fill="#43b581"/>
  <text x="274" y="468" fill="#43b581" font-family="Arial,sans-serif" font-size="11" font-weight="bold">Voice Connected</text>
  <text x="390" y="468" fill="#8e9297" font-family="Arial,sans-serif" font-size="11">Game Table — 3 members</text>
  <text x="860" y="468" fill="#8e9297" font-family="Arial,sans-serif" font-size="11">🔇 Deafen  📞 Disconnect</text>
</svg>
