<svg xmlns="http://www.w3.org/2000/svg" viewBox="0 0 960 540" width="960" height="540">
  <defs>
    <linearGradient id="fg-header" x1="0" y1="0" x2="0" y2="1">
      <stop offset="0%" stop-color="#2c3e50"/>
      <stop offset="100%" stop-color="#1a252f"/>
    </linearGradient>
    <linearGradient id="fg-sidebar" x1="0" y1="0" x2="1" y2="0">
      <stop offset="0%" stop-color="#1e2d3d"/>
      <stop offset="100%" stop-color="#243447"/>
    </linearGradient>
  </defs>

  <!-- Background -->
  <rect width="960" height="540" fill="#1a1a2e"/>

  <!-- FG Title Bar -->
  <rect x="0" y="0" width="960" height="30" fill="url(#fg-header)"/>
  <text x="14" y="20" fill="#ffffff" font-family="Arial,sans-serif" font-size="12" font-weight="bold">Fantasy Grounds Unity</text>
  <text x="860" y="20" fill="#aaa" font-family="Arial,sans-serif" font-size="11">— □ ✕</text>

  <!-- Combat Tracker Panel -->
  <rect x="8" y="38" width="340" height="260" rx="4" fill="#243447" stroke="#3a5a78" stroke-width="1"/>
  <rect x="8" y="38" width="340" height="24" rx="4" fill="#2c3e50"/>
  <text x="20" y="55" fill="#88c0d0" font-family="Arial,sans-serif" font-size="11" font-weight="bold">⚔ Combat Tracker</text>

  <!-- Initiative entries -->
  <g transform="translate(16, 72)">
    <rect x="0" y="0" width="324" height="22" rx="2" fill="#2e4a3e"/>
    <circle cx="10" cy="11" r="5" fill="#22c55e"/>
    <text x="22" y="15" fill="#a3d9a5" font-family="Arial,sans-serif" font-size="10" font-weight="bold">20</text>
    <text x="48" y="15" fill="#e8e8e8" font-family="Arial,sans-serif" font-size="10">Thorin Ironforge</text>
    <text x="220" y="15" fill="#88c0d0" font-family="Arial,sans-serif" font-size="9">Fighter 5</text>
    <text x="290" y="15" fill="#22c55e" font-family="Arial,sans-serif" font-size="9">45/52</text>
  </g>
  <g transform="translate(16, 98)">
    <rect x="0" y="0" width="324" height="22" rx="2" fill="#1e2d3d"/>
    <circle cx="10" cy="11" r="5" fill="#3b82f6"/>
    <text x="22" y="15" fill="#93c5fd" font-family="Arial,sans-serif" font-size="10" font-weight="bold">17</text>
    <text x="48" y="15" fill="#e8e8e8" font-family="Arial,sans-serif" font-size="10">Elara Moonshadow</text>
    <text x="220" y="15" fill="#88c0d0" font-family="Arial,sans-serif" font-size="9">Wizard 5</text>
    <text x="290" y="15" fill="#22c55e" font-family="Arial,sans-serif" font-size="9">22/28</text>
  </g>
  <g transform="translate(16, 124)">
    <rect x="0" y="0" width="324" height="22" rx="2" fill="#3d1e1e"/>
    <circle cx="10" cy="11" r="5" fill="#ef4444"/>
    <text x="22" y="15" fill="#fca5a5" font-family="Arial,sans-serif" font-size="10" font-weight="bold">15</text>
    <text x="48" y="15" fill="#e8e8e8" font-family="Arial,sans-serif" font-size="10">Shadow Wolf #1</text>
    <text x="220" y="15" fill="#f87171" font-family="Arial,sans-serif" font-size="9">Beast</text>
    <text x="290" y="15" fill="#f87171" font-family="Arial,sans-serif" font-size="9">24/24</text>
  </g>
  <g transform="translate(16, 150)">
    <rect x="0" y="0" width="324" height="22" rx="2" fill="#3d1e1e"/>
    <circle cx="10" cy="11" r="5" fill="#ef4444"/>
    <text x="22" y="15" fill="#fca5a5" font-family="Arial,sans-serif" font-size="10" font-weight="bold">12</text>
    <text x="48" y="15" fill="#e8e8e8" font-family="Arial,sans-serif" font-size="10">Shadow Wolf #2</text>
    <text x="220" y="15" fill="#f87171" font-family="Arial,sans-serif" font-size="9">Beast</text>
    <text x="290" y="15" fill="#f87171" font-family="Arial,sans-serif" font-size="9">24/24</text>
  </g>
  <g transform="translate(16, 176)">
    <rect x="0" y="0" width="324" height="22" rx="2" fill="#1e2d3d"/>
    <circle cx="10" cy="11" r="5" fill="#f59e0b"/>
    <text x="22" y="15" fill="#fcd34d" font-family="Arial,sans-serif" font-size="10" font-weight="bold">8</text>
    <text x="48" y="15" fill="#e8e8e8" font-family="Arial,sans-serif" font-size="10">Grog the Mighty</text>
    <text x="220" y="15" fill="#88c0d0" font-family="Arial,sans-serif" font-size="9">Barbarian 5</text>
    <text x="290" y="15" fill="#f59e0b" font-family="Arial,sans-serif" font-size="9">0/67</text>
  </g>

  <!-- Dice results area -->
  <rect x="16" y="210" width="324" height="78" rx="3" fill="#1a252f" stroke="#3a5a78" stroke-width="0.5"/>
  <text x="28" y="230" fill="#88c0d0" font-family="Arial,sans-serif" font-size="10">🎲 Thorin: Attack Roll</text>
  <text x="28" y="248" fill="#fcd34d" font-family="monospace" font-size="13" font-weight="bold">d20 + 7 = [14] + 7 = 21</text>
  <text x="28" y="268" fill="#22c55e" font-family="Arial,sans-serif" font-size="10" font-weight="bold">→ Hit! (AC 14)</text>
  <text x="28" y="284" fill="#f87171" font-family="monospace" font-size="11">Damage: 1d8+4 = [6]+4 = 10 slashing</text>

  <!-- Character Sheet Panel (right) -->
  <rect x="356" y="38" width="596" height="260" rx="4" fill="#243447" stroke="#3a5a78" stroke-width="1"/>
  <rect x="356" y="38" width="596" height="24" rx="4" fill="#2c3e50"/>
  <text x="368" y="55" fill="#88c0d0" font-family="Arial,sans-serif" font-size="11" font-weight="bold">📋 Character Sheet — Thorin Ironforge</text>

  <!-- Character info -->
  <g transform="translate(368, 72)">
    <text x="0" y="14" fill="#e8e8e8" font-family="Arial,sans-serif" font-size="10">Race: Mountain Dwarf | Class: Fighter 5 (Champion) | Alignment: Lawful Good</text>

    <!-- Stats row -->
    <g transform="translate(0, 28)">
      <rect x="0" y="0" width="80" height="38" rx="3" fill="#1e2d3d" stroke="#3a5a78" stroke-width="0.5"/>
      <text x="40" y="14" fill="#88c0d0" font-family="Arial,sans-serif" font-size="9" text-anchor="middle">STR</text>
      <text x="40" y="32" fill="#fcd34d" font-family="monospace" font-size="14" text-anchor="middle" font-weight="bold">18 (+4)</text>

      <rect x="86" y="0" width="80" height="38" rx="3" fill="#1e2d3d" stroke="#3a5a78" stroke-width="0.5"/>
      <text x="126" y="14" fill="#88c0d0" font-family="Arial,sans-serif" font-size="9" text-anchor="middle">DEX</text>
      <text x="126" y="32" fill="#e8e8e8" font-family="monospace" font-size="14" text-anchor="middle">12 (+1)</text>

      <rect x="172" y="0" width="80" height="38" rx="3" fill="#1e2d3d" stroke="#3a5a78" stroke-width="0.5"/>
      <text x="212" y="14" fill="#88c0d0" font-family="Arial,sans-serif" font-size="9" text-anchor="middle">CON</text>
      <text x="212" y="32" fill="#fcd34d" font-family="monospace" font-size="14" text-anchor="middle" font-weight="bold">16 (+3)</text>

      <rect x="258" y="0" width="80" height="38" rx="3" fill="#1e2d3d" stroke="#3a5a78" stroke-width="0.5"/>
      <text x="298" y="14" fill="#88c0d0" font-family="Arial,sans-serif" font-size="9" text-anchor="middle">INT</text>
      <text x="298" y="32" fill="#e8e8e8" font-family="monospace" font-size="14" text-anchor="middle">10 (+0)</text>

      <rect x="344" y="0" width="80" height="38" rx="3" fill="#1e2d3d" stroke="#3a5a78" stroke-width="0.5"/>
      <text x="384" y="14" fill="#88c0d0" font-family="Arial,sans-serif" font-size="9" text-anchor="middle">WIS</text>
      <text x="384" y="32" fill="#e8e8e8" font-family="monospace" font-size="14" text-anchor="middle">13 (+1)</text>

      <rect x="430" y="0" width="80" height="38" rx="3" fill="#1e2d3d" stroke="#3a5a78" stroke-width="0.5"/>
      <text x="470" y="14" fill="#88c0d0" font-family="Arial,sans-serif" font-size="9" text-anchor="middle">CHA</text>
      <text x="470" y="32" fill="#e8e8e8" font-family="monospace" font-size="14" text-anchor="middle">8 (-1)</text>
    </g>

    <!-- Combat row -->
    <g transform="translate(0, 78)">
      <rect x="0" y="0" width="100" height="30" rx="3" fill="#1e3d2d" stroke="#22c55e" stroke-width="0.5"/>
      <text x="50" y="12" fill="#88c0d0" font-family="Arial,sans-serif" font-size="8" text-anchor="middle">Hit Points</text>
      <text x="50" y="26" fill="#22c55e" font-family="monospace" font-size="13" text-anchor="middle" font-weight="bold">45 / 52</text>

      <rect x="110" y="0" width="80" height="30" rx="3" fill="#1e2d3d" stroke="#3a5a78" stroke-width="0.5"/>
      <text x="150" y="12" fill="#88c0d0" font-family="Arial,sans-serif" font-size="8" text-anchor="middle">AC</text>
      <text x="150" y="26" fill="#fcd34d" font-family="monospace" font-size="13" text-anchor="middle" font-weight="bold">18</text>

      <rect x="200" y="0" width="80" height="30" rx="3" fill="#1e2d3d" stroke="#3a5a78" stroke-width="0.5"/>
      <text x="240" y="12" fill="#88c0d0" font-family="Arial,sans-serif" font-size="8" text-anchor="middle">Prof. Bonus</text>
      <text x="240" y="26" fill="#e8e8e8" font-family="monospace" font-size="13" text-anchor="middle">+3</text>

      <rect x="290" y="0" width="80" height="30" rx="3" fill="#1e2d3d" stroke="#3a5a78" stroke-width="0.5"/>
      <text x="330" y="12" fill="#88c0d0" font-family="Arial,sans-serif" font-size="8" text-anchor="middle">Speed</text>
      <text x="330" y="26" fill="#e8e8e8" font-family="monospace" font-size="13" text-anchor="middle">25 ft</text>
    </g>

    <!-- Weapons -->
    <text x="0" y="128" fill="#88c0d0" font-family="Arial,sans-serif" font-size="9" font-weight="bold">Weapons</text>
    <text x="0" y="144" fill="#e8e8e8" font-family="Arial,sans-serif" font-size="9">Battleaxe +7 | 1d8+4 slashing | Versatile (1d10)</text>
    <text x="0" y="158" fill="#e8e8e8" font-family="Arial,sans-serif" font-size="9">Handaxe +7 | 1d6+4 slashing | Light, Thrown (20/60)</text>

    <!-- Features -->
    <text x="0" y="180" fill="#88c0d0" font-family="Arial,sans-serif" font-size="9" font-weight="bold">Features</text>
    <text x="0" y="196" fill="#e8e8e8" font-family="Arial,sans-serif" font-size="9">Second Wind (1/rest) | Action Surge (1/rest) | Improved Critical | Extra Attack</text>
  </g>

  <!-- Map / Battle Grid (bottom) -->
  <rect x="8" y="306" width="944" height="226" rx="4" fill="#1a252f" stroke="#3a5a78" stroke-width="1"/>
  <rect x="8" y="306" width="944" height="24" rx="4" fill="#2c3e50"/>
  <text x="20" y="323" fill="#88c0d0" font-family="Arial,sans-serif" font-size="11" font-weight="bold">🗺 Battle Map — Mistwood Clearing</text>

  <!-- Grid -->
  <g stroke="#3a5a78" stroke-width="0.3" stroke-opacity="0.4">
    <line x1="8" y1="360" x2="952" y2="360"/>
    <line x1="8" y1="390" x2="952" y2="390"/>
    <line x1="8" y1="420" x2="952" y2="420"/>
    <line x1="8" y1="450" x2="952" y2="450"/>
    <line x1="8" y1="480" x2="952" y2="480"/>
    <line x1="100" y1="330" x2="100" y2="532"/>
    <line x1="200" y1="330" x2="200" y2="532"/>
    <line x1="300" y1="330" x2="300" y2="532"/>
    <line x1="400" y1="330" x2="400" y2="532"/>
    <line x1="500" y1="330" x2="500" y2="532"/>
    <line x1="600" y1="330" x2="600" y2="532"/>
    <line x1="700" y1="330" x2="700" y2="532"/>
    <line x1="800" y1="330" x2="800" y2="532"/>
    <line x1="900" y1="330" x2="900" y2="532"/>
  </g>

  <!-- Trees -->
  <circle cx="150" cy="370" r="18" fill="#1a3a1a" opacity="0.6"/>
  <circle cx="350" cy="350" r="22" fill="#1a3a1a" opacity="0.5"/>
  <circle cx="750" cy="380" r="20" fill="#1a3a1a" opacity="0.6"/>
  <circle cx="850" cy="500" r="15" fill="#1a3a1a" opacity="0.5"/>
  <circle cx="100" cy="480" r="16" fill="#1a3a1a" opacity="0.6"/>

  <!-- Player tokens -->
  <circle cx="400" cy="420" r="12" fill="#3b82f6" stroke="#93c5fd" stroke-width="2"/>
  <text x="400" y="424" fill="white" font-family="Arial,sans-serif" font-size="9" text-anchor="middle" font-weight="bold">T</text>
  <circle cx="430" cy="450" r="12" fill="#8b5cf6" stroke="#c4b5fd" stroke-width="2"/>
  <text x="430" y="454" fill="white" font-family="Arial,sans-serif" font-size="9" text-anchor="middle" font-weight="bold">E</text>
  <circle cx="370" cy="450" r="12" fill="#f59e0b" stroke="#fcd34d" stroke-width="2"/>
  <text x="370" y="454" fill="white" font-family="Arial,sans-serif" font-size="9" text-anchor="middle" font-weight="bold">G</text>

  <!-- Enemy tokens -->
  <circle cx="500" cy="390" r="12" fill="#ef4444" stroke="#fca5a5" stroke-width="2"/>
  <text x="500" y="394" fill="white" font-family="Arial,sans-serif" font-size="7" text-anchor="middle" font-weight="bold">W1</text>
  <circle cx="540" cy="430" r="12" fill="#ef4444" stroke="#fca5a5" stroke-width="2"/>
  <text x="540" y="434" fill="white" font-family="Arial,sans-serif" font-size="7" text-anchor="middle" font-weight="bold">W2</text>

  <!-- Sync indicator -->
  <rect x="780" y="8" width="170" height="16" rx="8" fill="#22c55e" fill-opacity="0.15"/>
  <circle cx="792" cy="16" r="4" fill="#22c55e"/>
  <text x="802" y="20" fill="#22c55e" font-family="Arial,sans-serif" font-size="9" font-weight="bold">↔ Syncing with RoleVerse</text>
</svg>
