<svg xmlns="http://www.w3.org/2000/svg" viewBox="0 0 1400 900" width="1400" height="900" style="font-family: Georgia, serif;">
  <defs>
    <linearGradient id="voidBg" x1="0%" y1="0%" x2="0%" y2="100%">
      <stop offset="0%" style="stop-color:#08090b"/>
      <stop offset="100%" style="stop-color:#0d0f13"/>
    </linearGradient>
    <linearGradient id="crimsonAccent" x1="0%" y1="0%" x2="100%" y2="0%">
      <stop offset="0%" style="stop-color:transparent"/>
      <stop offset="35%" style="stop-color:#8b1a1a"/>
      <stop offset="50%" style="stop-color:#7a5a1a"/>
      <stop offset="65%" style="stop-color:#8b1a1a"/>
      <stop offset="100%" style="stop-color:transparent"/>
    </linearGradient>
    <linearGradient id="sectionRule" x1="0%" y1="0%" x2="100%" y2="0%">
      <stop offset="0%" style="stop-color:#5a1111"/>
      <stop offset="100%" style="stop-color:transparent"/>
    </linearGradient>
    <linearGradient id="sceneGrad" x1="0%" y1="0%" x2="0%" y2="100%">
      <stop offset="0%" style="stop-color:#0d0f13"/>
      <stop offset="100%" style="stop-color:#1a0a0a"/>
    </linearGradient>
    <filter id="crimsonGlow">
      <feGaussianBlur stdDeviation="3" result="blur"/>
      <feComposite in="SourceGraphic" in2="blur" operator="over"/>
    </filter>
  </defs>

  <!-- Root background -->
  <rect width="1400" height="900" fill="url(#voidBg)"/>

  <!-- ═══════════════════════════════════════════════════════ -->
  <!-- LEFT SIDEBAR (220px) -->
  <!-- ═══════════════════════════════════════════════════════ -->
  <rect x="0" y="0" width="220" height="900" fill="#0f1114"/>
  <rect x="219" y="0" width="1" height="900" fill="#5a1111"/>

  <!-- Logo row -->
  <rect x="0" y="0" width="220" height="52" fill="#0f1114"/>
  <rect x="0" y="51" width="220" height="1" fill="#5a1111"/>
  <!-- Star icon -->
  <polygon points="24,28 21,36 29,31 19,31 27,36" fill="#8b1a1a"/>
  <!-- RoleVerse text -->
  <text x="38" y="33" fill="#b8882a" font-size="13" font-weight="700" letter-spacing="1" style="font-variant: small-caps;">RoleVerse</text>

  <!-- New Campaign button -->
  <rect x="10" y="62" width="200" height="30" fill="#8b1a1a" rx="0"/>
  <rect x="10" y="62" width="200" height="30" fill="none" stroke="#b02020" stroke-width="1"/>
  <text x="110" y="82" fill="#e4dfd0" font-size="9" font-weight="700" letter-spacing="2" text-anchor="middle" style="font-variant: small-caps;">+ NEW CAMPAIGN</text>

  <!-- Nav section label -->
  <text x="14" y="114" fill="#6a6560" font-size="8" letter-spacing="3" style="font-variant: small-caps;">Navigation</text>

  <!-- Nav items -->
  <!-- Home (active) -->
  <rect x="0" y="120" width="3" height="24" fill="#8b1a1a"/>
  <rect x="0" y="120" width="220" height="24" fill="#161820"/>
  <text x="18" y="136" fill="#b8882a" font-size="11" letter-spacing="1">Home</text>

  <text x="18" y="162" fill="#a09b8e" font-size="11" letter-spacing="1">Discover</text>
  <text x="18" y="186" fill="#a09b8e" font-size="11" letter-spacing="1">Campaigns</text>
  <text x="18" y="210" fill="#a09b8e" font-size="11" letter-spacing="1">Workshop</text>
  <text x="18" y="234" fill="#a09b8e" font-size="11" letter-spacing="1">Image Studio</text>
  <text x="18" y="258" fill="#a09b8e" font-size="11" letter-spacing="1">Claim Credits</text>

  <!-- Divider -->
  <rect x="14" y="272" width="192" height="1" fill="url(#sectionRule)"/>

  <!-- Footer nav -->
  <text x="18" y="292" fill="#a09b8e" font-size="11" letter-spacing="1">Help Center</text>
  <text x="18" y="314" fill="#a09b8e" font-size="11" letter-spacing="1">Feedback</text>
  <text x="18" y="336" fill="#a09b8e" font-size="11" letter-spacing="1">Updates</text>
  <text x="18" y="358" fill="#a09b8e" font-size="11" letter-spacing="1">Discord</text>
  <text x="18" y="380" fill="#a09b8e" font-size="11" letter-spacing="1">Bug Report</text>

  <!-- User chip at bottom -->
  <rect x="0" y="848" width="220" height="52" fill="#0f1114"/>
  <rect x="0" y="848" width="220" height="1" fill="#5a1111"/>
  <!-- Avatar circle -->
  <circle cx="28" cy="874" r="14" fill="#5a1111" stroke="#8b1a1a" stroke-width="1"/>
  <text x="28" y="879" fill="#e4dfd0" font-size="9" font-weight="700" text-anchor="middle">DM</text>
  <!-- User name -->
  <text x="50" y="870" fill="#e4dfd0" font-size="10" font-weight="600" letter-spacing="0.5">Craig Arenz</text>
  <text x="50" y="883" fill="#6a6560" font-size="9">Dungeon Master</text>
  <!-- Sign out icon -->
  <path d="M205 868 L210 868 L210 880 L205 880" fill="none" stroke="#6a6560" stroke-width="1.5"/>
  <path d="M208 874 L215 874" stroke="#6a6560" stroke-width="1.5"/>
  <path d="M213 871 L216 874 L213 877" fill="none" stroke="#6a6560" stroke-width="1.5"/>

  <!-- ═══════════════════════════════════════════════════════ -->
  <!-- CENTER: SESSION SIDEBAR (240px) -->
  <!-- ═══════════════════════════════════════════════════════ -->
  <rect x="220" y="0" width="240" height="900" fill="#0f1114"/>
  <rect x="459" y="0" width="1" height="900" fill="#5a1111"/>

  <!-- Campaign header -->
  <rect x="220" y="0" width="240" height="64" fill="#0f1114"/>
  <rect x="220" y="63" width="240" height="1" fill="#5a1111"/>
  <text x="236" y="26" fill="#e4dfd0" font-size="12" font-weight="600" letter-spacing="0.5">The Tomb of Annihilation</text>
  <rect x="236" y="34" width="60" height="16" fill="rgba(184,136,42,0.1)" stroke="#7a5a1a" stroke-width="1"/>
  <text x="266" y="46" fill="#b8882a" font-size="8" letter-spacing="1.5" text-anchor="middle" style="font-variant: small-caps;">AD&amp;D 2E</text>

  <!-- Session sidebar sections -->
  <!-- Party Members section -->
  <rect x="220" y="64" width="240" height="32" fill="#0f1114"/>
  <text x="232" y="84" fill="#6a6560" font-size="9" letter-spacing="2">▼  PARTY MEMBERS</text>
  <rect x="220" y="95" width="240" height="1" fill="#2a2d38"/>

  <rect x="232" y="106" width="216" height="22" fill="none"/>
  <circle cx="242" cy="117" r="6" fill="#5a1111" stroke="#8b1a1a" stroke-width="1"/>
  <text x="242" y="121" fill="#e4dfd0" font-size="7" text-anchor="middle">TI</text>
  <text x="254" y="115" fill="#a09b8e" font-size="10">Thorin Ironforge</text>
  <rect x="380" y="109" width="28" height="14" fill="rgba(184,136,42,0.1)" stroke="#7a5a1a" stroke-width="1"/>
  <text x="394" y="120" fill="#b8882a" font-size="7" letter-spacing="1" text-anchor="middle">DM</text>

  <text x="254" y="137" fill="#a09b8e" font-size="10">Elara Moonshadow</text>
  <rect x="370" y="129" width="40" height="14" fill="none" stroke="#2a2d38" stroke-width="1"/>
  <text x="390" y="140" fill="#6a6560" font-size="7" letter-spacing="1" text-anchor="middle">PLAYER</text>

  <text x="254" y="157" fill="#a09b8e" font-size="10">Grog the Mighty</text>
  <rect x="370" y="149" width="40" height="14" fill="none" stroke="#2a2d38" stroke-width="1"/>
  <text x="390" y="160" fill="#6a6560" font-size="7" letter-spacing="1" text-anchor="middle">PLAYER</text>

  <rect x="220" y="168" width="240" height="1" fill="#2a2d38"/>

  <!-- Session Notes collapsed -->
  <text x="232" y="188" fill="#6a6560" font-size="9" letter-spacing="2">▶  SESSION NOTES</text>
  <rect x="220" y="196" width="240" height="1" fill="#2a2d38"/>

  <!-- Settings collapsed -->
  <text x="232" y="216" fill="#6a6560" font-size="9" letter-spacing="2">▶  SETTINGS</text>
  <rect x="220" y="224" width="240" height="1" fill="#2a2d38"/>

  <!-- Footer status -->
  <rect x="220" y="820" width="240" height="1" fill="#5a1111"/>
  <rect x="230" y="832" width="220" height="26" fill="#1e2028" stroke="#5a1111" stroke-width="1"/>
  <circle cx="244" cy="845" r="4" fill="#6a6560"/>
  <text x="252" y="849" fill="#a09b8e" font-size="9" letter-spacing="1">FG: Not Connected</text>

  <rect x="230" y="862" width="220" height="26" fill="#1e2028" stroke="#5a1111" stroke-width="1"/>
  <circle cx="244" cy="875" r="4" fill="#6a6560"/>
  <text x="252" y="879" fill="#a09b8e" font-size="9" letter-spacing="1">Voice Inactive</text>

  <!-- ═══════════════════════════════════════════════════════ -->
  <!-- CENTER MAIN: SCENE + CHAT -->
  <!-- ═══════════════════════════════════════════════════════ -->
  <rect x="460" y="0" width="620" height="900" fill="#08090b"/>

  <!-- SCENE DISPLAY (top ~42%) -->
  <rect x="468" y="8" width="604" height="370" fill="#08090b" stroke="#5a1111" stroke-width="1"/>
  <!-- Crimson top accent -->
  <rect x="468" y="8" width="604" height="2" fill="url(#crimsonAccent)"/>
  <!-- Corner ornaments -->
  <path d="M476 16 L476 24 M476 16 L484 16" fill="none" stroke="#b8882a" stroke-width="1"/>
  <path d="M1064 16 L1064 24 M1064 16 L1056 16" fill="none" stroke="#b8882a" stroke-width="1"/>
  <path d="M476 370 L476 362 M476 370 L484 370" fill="none" stroke="#b8882a" stroke-width="1"/>
  <path d="M1064 370 L1064 362 M1064 370 L1056 370" fill="none" stroke="#b8882a" stroke-width="1"/>

  <!-- Scene image placeholder — atmospheric cave scene -->
  <rect x="469" y="10" width="602" height="368" fill="url(#sceneGrad)"/>
  <!-- Atmospheric stalactites -->
  <path d="M500 10 L510 80 L520 10" fill="#1a1010" opacity="0.7"/>
  <path d="M560 10 L572 100 L584 10" fill="#1a1010" opacity="0.6"/>
  <path d="M620 10 L630 65 L640 10" fill="#1a1010" opacity="0.5"/>
  <path d="M680 10 L695 120 L710 10" fill="#1a1010" opacity="0.7"/>
  <path d="M750 10 L758 55 L766 10" fill="#1a1010" opacity="0.4"/>
  <path d="M810 10 L825 90 L840 10" fill="#1a1010" opacity="0.6"/>
  <path d="M880 10 L892 75 L904 10" fill="#1a1010" opacity="0.5"/>
  <path d="M940 10 L950 110 L960 10" fill="#1a1010" opacity="0.7"/>
  <path d="M1000 10 L1010 60 L1020 10" fill="#1a1010" opacity="0.4"/>
  <!-- Glowing mushrooms/moss -->
  <ellipse cx="580" cy="350" rx="40" ry="12" fill="#2a1a3a" opacity="0.6"/>
  <ellipse cx="900" cy="358" rx="55" ry="10" fill="#1a2a1a" opacity="0.5"/>
  <!-- Torch glow effect -->
  <circle cx="770" cy="260" r="80" fill="rgba(184,80,20,0.08)"/>
  <circle cx="770" cy="260" r="40" fill="rgba(200,100,30,0.12)"/>
  <!-- Silhouette adventurers -->
  <ellipse cx="720" cy="340" rx="18" ry="30" fill="#1a0f0f" opacity="0.9"/>
  <ellipse cx="770" cy="320" rx="20" ry="35" fill="#150d0d" opacity="0.9"/>
  <ellipse cx="820" cy="338" rx="16" ry="28" fill="#1a0f0f" opacity="0.9"/>

  <!-- Scene source label -->
  <rect x="478" y="18" width="90" height="18" fill="rgba(0,0,0,0.7)" stroke="#5a1111" stroke-width="1"/>
  <text x="523" y="31" fill="#a09b8e" font-size="8" letter-spacing="1.5" text-anchor="middle" style="font-variant: small-caps;">AI Generated</text>

  <!-- Scene controls (top right) -->
  <rect x="1028" y="18" width="28" height="28" fill="rgba(0,0,0,0.7)" stroke="#5a1111" stroke-width="1"/>
  <path d="M1036 30 L1048 30 M1048 26 L1048 34" fill="none" stroke="#a09b8e" stroke-width="1.5"/>
  <rect x="1058" y="18" width="28" height="28" fill="rgba(0,0,0,0.7)" stroke="#5a1111" stroke-width="1"/>
  <path d="M1066 26 L1078 38 M1078 26 L1066 38" fill="none" stroke="#a09b8e" stroke-width="1.5"/>

  <!-- Scene caption -->
  <rect x="468" y="348" width="604" height="30" fill="#0d0f13" stroke-top="#5a1111"/>
  <rect x="468" y="348" width="604" height="1" fill="#5a1111"/>
  <text x="480" y="368" fill="#a09b8e" font-size="10" font-style="italic">The cavern opens before you, stalactites dripping with phosphorescent moss…</text>

  <!-- CHAT WINDOW -->
  <rect x="468" y="386" width="604" height="470" fill="#161820" stroke="#5a1111" stroke-width="1"/>

  <!-- Chat messages -->
  <!-- System message -->
  <rect x="568" y="398" width="404" height="20" fill="#1e2028"/>
  <text x="770" y="412" fill="#6a6560" font-size="9" font-style="italic" text-anchor="middle">Session started. Welcome, adventurers!</text>

  <!-- Narrator message -->
  <rect x="480" y="426" width="65" height="16" fill="rgba(0,0,0,0.3)" stroke="rgba(184,136,42,0.25)" stroke-width="1"/>
  <text x="513" y="438" fill="#b8882a" font-size="8" letter-spacing="1.5" text-anchor="middle" style="font-variant: small-caps;">Narrator</text>
  <rect x="480" y="444" width="470" height="62" fill="#14161d" stroke-left="#8b1a1a"/>
  <rect x="480" y="444" width="2" height="62" fill="#5a1111"/>
  <text x="492" y="460" fill="#e4dfd0" font-size="11">The evening air is thick with pine as your party arrives at the Mistwood Forest.</text>
  <text x="492" y="476" fill="#e4dfd0" font-size="11">Ancient trees tower above, their gnarled branches twisting like skeletal fingers</text>
  <text x="492" y="492" fill="#e4dfd0" font-size="11">against the darkening sky. A narrow path leads deeper into the woods…</text>
  <!-- Scene updated indicator -->
  <rect x="482" y="498" width="90" height="14" fill="rgba(184,136,42,0.08)" stroke="#7a5a1a" stroke-width="1"/>
  <text x="528" y="509" fill="#b8882a" font-size="7.5" letter-spacing="1" text-anchor="middle" style="font-variant: small-caps;">▣ Scene updated</text>
  <text x="480" y="522" fill="#6a6560" font-size="9">9m ago</text>

  <!-- Player message (right aligned) -->
  <text x="952" y="544" fill="#a09b8e" font-size="8" letter-spacing="1" text-anchor="end" style="font-variant: small-caps;">Thorin</text>
  <rect x="660" y="548" width="292" height="36" fill="#1e2028"/>
  <text x="806" y="562" fill="#e4dfd0" font-size="11" text-anchor="middle">I light a torch and take the lead,</text>
  <text x="806" y="576" fill="#e4dfd0" font-size="11" text-anchor="middle">keeping my shield ready.</text>
  <text x="952" y="594" fill="#6a6560" font-size="9" text-anchor="end">8m ago  ⌨</text>

  <!-- Rules Arbiter message -->
  <rect x="480" y="606" width="100" height="16" fill="rgba(0,0,0,0.3)" stroke="rgba(122,138,154,0.25)" stroke-width="1"/>
  <text x="530" y="618" fill="#7a8a9a" font-size="8" letter-spacing="1.5" text-anchor="middle" style="font-variant: small-caps;">Rules Arbiter</text>
  <rect x="480" y="624" width="400" height="36" fill="#14161d"/>
  <rect x="480" y="624" width="2" height="36" fill="#7a8a9a" opacity="0.5"/>
  <text x="492" y="638" fill="#e4dfd0" font-size="11">Thorin lights a torch: bright light 20ft radius, dim light +20ft.</text>
  <text x="492" y="652" fill="#e4dfd0" font-size="11">AC remains unchanged with shield equipped.</text>
  <text x="480" y="670" fill="#6a6560" font-size="9">7m ago</text>

  <!-- NPC Dialogue message -->
  <rect x="480" y="682" width="95" height="16" fill="rgba(0,0,0,0.3)" stroke="rgba(42,122,74,0.25)" stroke-width="1"/>
  <text x="528" y="694" fill="#4a9a5a" font-size="8" letter-spacing="1.5" text-anchor="middle" style="font-variant: small-caps;">NPC Dialogue</text>
  <rect x="480" y="700" width="440" height="36" fill="#14161d"/>
  <rect x="480" y="700" width="2" height="36" fill="#4a9a5a" opacity="0.5"/>
  <text x="492" y="714" fill="#e4dfd0" font-size="11" font-style="italic">"Who dares enter the Mistwood at this hour? Turn back,</text>
  <text x="492" y="728" fill="#e4dfd0" font-size="11" font-style="italic">or face what sleeps beneath the roots…"</text>

  <!-- Input bar -->
  <rect x="468" y="812" width="604" height="44" fill="#0d0f13" stroke="#5a1111" stroke-width="1"/>
  <rect x="476" y="820" width="536" height="28" fill="#161820" stroke="#5a1111" stroke-width="1"/>
  <text x="490" y="838" fill="#6a6560" font-size="11" font-style="italic">What do you do…</text>
  <!-- Send button -->
  <rect x="1018" y="820" width="46" height="28" fill="#8b1a1a" stroke="#b02020" stroke-width="1"/>
  <text x="1041" y="838" fill="#e4dfd0" font-size="11" text-anchor="middle">↑</text>

  <!-- ═══════════════════════════════════════════════════════ -->
  <!-- RIGHT PANEL: CHARACTER (320px) -->
  <!-- ═══════════════════════════════════════════════════════ -->
  <rect x="1080" y="0" width="320" height="900" fill="#0f1114"/>
  <rect x="1080" y="0" width="1" height="900" fill="#5a1111"/>

  <!-- Party avatar selector -->
  <text x="1094" y="26" fill="#b8882a" font-size="8" letter-spacing="2.5" style="font-variant: small-caps;">Party</text>

  <!-- Avatar 1 (selected - Thorin) -->
  <rect x="1094" y="34" width="66" height="72" fill="rgba(184,136,42,0.08)" stroke="#b8882a" stroke-width="1"/>
  <rect x="1094" y="34" width="66" height="2" fill="url(#crimsonAccent)"/>
  <path d="M1097 37 L1097 42 M1097 37 L1102 37" fill="none" stroke="#b8882a" stroke-width="0.75"/>
  <path d="M1157 37 L1157 42 M1157 37 L1152 37" fill="none" stroke="#b8882a" stroke-width="0.75"/>
  <path d="M1097 103 L1097 98 M1097 103 L1102 103" fill="none" stroke="#b8882a" stroke-width="0.75"/>
  <path d="M1157 103 L1157 98 M1157 103 L1152 103" fill="none" stroke="#b8882a" stroke-width="0.75"/>
  <circle cx="1127" cy="64" r="18" fill="#5a1111" stroke="#8b1a1a" stroke-width="1"/>
  <text x="1127" y="69" fill="#e4dfd0" font-size="10" font-weight="700" text-anchor="middle">TI</text>
  <text x="1127" y="96" fill="#a09b8e" font-size="8.5" text-anchor="middle">Thorin</text>
  <circle cx="1153" cy="38" r="5" fill="#4a9a5a" stroke="#0f1114" stroke-width="1"/>

  <!-- Avatar 2 (Elara) -->
  <rect x="1166" y="34" width="66" height="72" fill="none" stroke="#2a2d38" stroke-width="1"/>
  <circle cx="1199" cy="64" r="18" fill="#5a1111" stroke="#8b1a1a" stroke-width="1"/>
  <text x="1199" y="69" fill="#e4dfd0" font-size="10" font-weight="700" text-anchor="middle">EM</text>
  <text x="1199" y="96" fill="#a09b8e" font-size="8.5" text-anchor="middle">Elara</text>
  <circle cx="1225" cy="38" r="5" fill="#4a9a5a" stroke="#0f1114" stroke-width="1"/>

  <!-- Avatar 3 (Grog - unconscious) -->
  <rect x="1238" y="34" width="66" height="72" fill="none" stroke="#2a2d38" stroke-width="1"/>
  <circle cx="1271" cy="64" r="18" fill="#3a1a1a" stroke="#5a1111" stroke-width="1"/>
  <text x="1271" y="69" fill="#a09b8e" font-size="10" font-weight="700" text-anchor="middle">GT</text>
  <text x="1271" y="96" fill="#a09b8e" font-size="8.5" text-anchor="middle">Grog</text>
  <circle cx="1297" cy="38" r="5" fill="#c8873a" stroke="#0f1114" stroke-width="1"/>

  <!-- Character Sheet: Thorin Ironforge (AD&D 2E) -->
  <rect x="1088" y="116" width="304" height="700" fill="#14161d" stroke="#5a1111" stroke-width="1"/>
  <rect x="1088" y="116" width="304" height="2" fill="url(#crimsonAccent)"/>

  <!-- Sheet header -->
  <text x="1100" y="140" fill="#e4dfd0" font-size="12" font-weight="600" letter-spacing="0.5">Thorin Ironforge</text>
  <text x="1100" y="156" fill="#a09b8e" font-size="10">Mountain Dwarf Fighter · Level 5 · LG</text>
  <rect x="1100" y="162" width="280" height="1" fill="#5a1111"/>

  <!-- Ability Scores -->
  <text x="1100" y="180" fill="#b8882a" font-size="7.5" letter-spacing="2" style="font-variant: small-caps;">Ability Scores</text>
  <!-- 6 stat boxes -->
  <!-- STR -->
  <rect x="1100" y="186" width="44" height="44" fill="#1e2028" stroke="#5a1111" stroke-width="1"/>
  <text x="1122" y="200" fill="#a09b8e" font-size="7" letter-spacing="1" text-anchor="middle" style="font-variant: small-caps;">STR</text>
  <text x="1122" y="220" fill="#e4dfd0" font-size="16" font-weight="700" text-anchor="middle">18</text>
  <!-- DEX -->
  <rect x="1148" y="186" width="44" height="44" fill="#1e2028" stroke="#5a1111" stroke-width="1"/>
  <text x="1170" y="200" fill="#a09b8e" font-size="7" letter-spacing="1" text-anchor="middle" style="font-variant: small-caps;">DEX</text>
  <text x="1170" y="220" fill="#e4dfd0" font-size="16" font-weight="700" text-anchor="middle">12</text>
  <!-- CON -->
  <rect x="1196" y="186" width="44" height="44" fill="#1e2028" stroke="#5a1111" stroke-width="1"/>
  <text x="1218" y="200" fill="#a09b8e" font-size="7" letter-spacing="1" text-anchor="middle" style="font-variant: small-caps;">CON</text>
  <text x="1218" y="220" fill="#e4dfd0" font-size="16" font-weight="700" text-anchor="middle">16</text>
  <!-- INT -->
  <rect x="1244" y="186" width="44" height="44" fill="#1e2028" stroke="#5a1111" stroke-width="1"/>
  <text x="1266" y="200" fill="#a09b8e" font-size="7" letter-spacing="1" text-anchor="middle" style="font-variant: small-caps;">INT</text>
  <text x="1266" y="220" fill="#e4dfd0" font-size="16" font-weight="700" text-anchor="middle">10</text>
  <!-- WIS -->
  <rect x="1292" y="186" width="44" height="44" fill="#1e2028" stroke="#5a1111" stroke-width="1"/>
  <text x="1314" y="200" fill="#a09b8e" font-size="7" letter-spacing="1" text-anchor="middle" style="font-variant: small-caps;">WIS</text>
  <text x="1314" y="220" fill="#e4dfd0" font-size="16" font-weight="700" text-anchor="middle">13</text>
  <!-- CHA -->
  <rect x="1340" y="186" width="44" height="44" fill="#1e2028" stroke="#5a1111" stroke-width="1"/>
  <text x="1362" y="200" fill="#a09b8e" font-size="7" letter-spacing="1" text-anchor="middle" style="font-variant: small-caps;">CHA</text>
  <text x="1362" y="220" fill="#e4dfd0" font-size="16" font-weight="700" text-anchor="middle">8</text>

  <!-- Combat (AD&D 2E specific) -->
  <text x="1100" y="252" fill="#b8882a" font-size="7.5" letter-spacing="2" style="font-variant: small-caps;">Combat</text>
  <!-- THAC0 -->
  <rect x="1100" y="258" width="92" height="46" fill="#1e2028" stroke="#5a1111" stroke-width="1"/>
  <text x="1146" y="272" fill="#a09b8e" font-size="7" letter-spacing="1" text-anchor="middle" style="font-variant: small-caps;">THAC0</text>
  <text x="1146" y="293" fill="#b02020" font-size="18" font-weight="700" text-anchor="middle">14</text>
  <!-- AC -->
  <rect x="1198" y="258" width="92" height="46" fill="#1e2028" stroke="#5a1111" stroke-width="1"/>
  <text x="1244" y="272" fill="#a09b8e" font-size="7" letter-spacing="1" text-anchor="middle" style="font-variant: small-caps;">AC</text>
  <text x="1244" y="293" fill="#b8882a" font-size="18" font-weight="700" text-anchor="middle">2</text>
  <!-- HP -->
  <rect x="1296" y="258" width="92" height="46" fill="#1e2028" stroke="#5a1111" stroke-width="1"/>
  <text x="1342" y="272" fill="#a09b8e" font-size="7" letter-spacing="1" text-anchor="middle" style="font-variant: small-caps;">HP</text>
  <text x="1342" y="293" fill="#4a9a5a" font-size="18" font-weight="700" text-anchor="middle">45/52</text>

  <!-- Saving Throws -->
  <text x="1100" y="326" fill="#b8882a" font-size="7.5" letter-spacing="2" style="font-variant: small-caps;">Saving Throws</text>
  <rect x="1100" y="330" width="280" height="1" fill="#5a1111" opacity="0.4"/>

  <text x="1100" y="348" fill="#a09b8e" font-size="9.5">Para/Poison/Death</text>
  <text x="1376" y="348" fill="#e4dfd0" font-size="9.5" font-weight="600" text-anchor="end">10</text>
  <rect x="1100" y="352" width="280" height="1" fill="#2a2d38"/>

  <text x="1100" y="368" fill="#a09b8e" font-size="9.5">Rod/Staff/Wand</text>
  <text x="1376" y="368" fill="#e4dfd0" font-size="9.5" font-weight="600" text-anchor="end">12</text>
  <rect x="1100" y="372" width="280" height="1" fill="#2a2d38"/>

  <text x="1100" y="388" fill="#a09b8e" font-size="9.5">Petrif./Polymorph</text>
  <text x="1376" y="388" fill="#e4dfd0" font-size="9.5" font-weight="600" text-anchor="end">11</text>
  <rect x="1100" y="392" width="280" height="1" fill="#2a2d38"/>

  <text x="1100" y="408" fill="#a09b8e" font-size="9.5">Breath Weapon</text>
  <text x="1376" y="408" fill="#e4dfd0" font-size="9.5" font-weight="600" text-anchor="end">13</text>
  <rect x="1100" y="412" width="280" height="1" fill="#2a2d38"/>

  <text x="1100" y="428" fill="#a09b8e" font-size="9.5">Spell</text>
  <text x="1376" y="428" fill="#e4dfd0" font-size="9.5" font-weight="600" text-anchor="end">12</text>
  <rect x="1100" y="432" width="280" height="1" fill="#2a2d38"/>

  <!-- Weapon Profs -->
  <text x="1100" y="456" fill="#b8882a" font-size="7.5" letter-spacing="2" style="font-variant: small-caps;">Weapon Proficiencies</text>
  <text x="1100" y="472" fill="#a09b8e" font-size="9.5">Longsword, Warhammer, Hand Axe, Crossbow</text>

  <!-- Non-weapon Profs -->
  <text x="1100" y="498" fill="#b8882a" font-size="7.5" letter-spacing="2" style="font-variant: small-caps;">Non-Weapon Proficiencies</text>
  <text x="1100" y="514" fill="#a09b8e" font-size="9.5">Mining, Armorer, Endurance, Direction Sense</text>

  <!-- Party Status section -->
  <rect x="1088" y="558" width="304" height="1" fill="#5a1111" opacity="0.6"/>
  <text x="1100" y="576" fill="#b8882a" font-size="7.5" letter-spacing="2" style="font-variant: small-caps;">Party Status</text>
  <rect x="1088" y="582" width="304" height="90" fill="#14161d" stroke="#5a1111" stroke-width="1"/>

  <!-- Party members -->
  <circle cx="1098" cy="600" r="4" fill="#4a9a5a"/>
  <text x="1108" y="604" fill="#e4dfd0" font-size="10" font-weight="500">Thorin Ironforge</text>
  <text x="1220" y="604" fill="#a09b8e" font-size="9.5">Fighter</text>
  <text x="1376" y="604" fill="#6a6560" font-size="9" text-anchor="end">45/52</text>

  <circle cx="1098" cy="622" r="4" fill="#4a9a5a"/>
  <text x="1108" y="626" fill="#e4dfd0" font-size="10" font-weight="500">Elara Moonshadow</text>
  <text x="1238" y="626" fill="#a09b8e" font-size="9.5">Wizard</text>
  <text x="1376" y="626" fill="#6a6560" font-size="9" text-anchor="end">22/28</text>

  <circle cx="1098" cy="644" r="4" fill="#c8873a"/>
  <text x="1108" y="648" fill="#e4dfd0" font-size="10" font-weight="500">Grog the Mighty</text>
  <text x="1228" y="648" fill="#a09b8e" font-size="9.5">Barbarian</text>
  <text x="1376" y="648" fill="#6a6560" font-size="9" text-anchor="end">0/67</text>

  <!-- Session Notes -->
  <rect x="1088" y="680" width="304" height="1" fill="#5a1111" opacity="0.6"/>
  <text x="1100" y="698" fill="#b8882a" font-size="7.5" letter-spacing="2" style="font-variant: small-caps;">Session Notes</text>
  <rect x="1088" y="704" width="304" height="108" fill="#161820" stroke="#5a1111" stroke-width="1"/>
  <text x="1100" y="724" fill="#e4dfd0" font-size="9.5">- Mistwood Forest entered at dusk</text>
  <text x="1100" y="740" fill="#e4dfd0" font-size="9.5">- Shadow wolves encountered at crossroads</text>
  <text x="1100" y="756" fill="#e4dfd0" font-size="9.5">- Grog is unconscious — needs healing</text>
  <text x="1100" y="772" fill="#e4dfd0" font-size="9.5">- Voice from shadows: investigate source</text>
  <text x="1100" y="795" fill="#6a6560" font-size="9" font-style="italic">Jot down notes during the session…</text>

  <!-- ═══════════════════════════════════════════════════════ -->
  <!-- BRANDING FOOTER (subtle) -->
  <!-- ═══════════════════════════════════════════════════════ -->
  <rect x="460" y="888" width="620" height="12" fill="#08090b"/>
  <text x="770" y="898" fill="#3a3530" font-size="7.5" letter-spacing="3" text-anchor="middle" style="font-variant: small-caps;">RoleVerse · AI-Powered Tabletop RPG Companion · Phase 5 Preview</text>
</svg>
