<svg xmlns="http://www.w3.org/2000/svg" viewBox="0 0 960 540" width="960" height="540">
  <defs>
    <linearGradient id="sidebar-bg" x1="0" y1="0" x2="0" y2="1">
      <stop offset="0%" stop-color="#503d2e"/>
      <stop offset="100%" stop-color="#3a2a1e"/>
    </linearGradient>
    <linearGradient id="parchment" x1="0" y1="0" x2="0" y2="1">
      <stop offset="0%" stop-color="#f0ecc9"/>
      <stop offset="100%" stop-color="#e0dbb5"/>
    </linearGradient>
    <linearGradient id="chat-bg" x1="0" y1="0" x2="0" y2="1">
      <stop offset="0%" stop-color="#2a1f16"/>
      <stop offset="100%" stop-color="#1e1610"/>
    </linearGradient>
  </defs>

  <!-- Background -->
  <rect width="960" height="540" fill="#1e1610"/>

  <!-- Left Sidebar (~240px) -->
  <rect x="0" y="0" width="200" height="540" fill="url(#sidebar-bg)"/>
  <!-- Campaign Header -->
  <rect x="0" y="0" width="200" height="60" fill="#3a2a1e" stroke="#e3a72f" stroke-width="0 0 1 0"/>
  <line x1="0" y1="60" x2="200" y2="60" stroke="#e3a72f" stroke-opacity="0.3" stroke-width="1"/>
  <text x="14" y="24" fill="#e3a72f" font-family="Georgia,serif" font-size="11" font-weight="bold">⚔ Lost Mines of Phandelver</text>
  <rect x="14" y="34" width="55" height="16" rx="3" fill="#058789"/>
  <text x="22" y="46" fill="#f0ecc9" font-family="Arial,sans-serif" font-size="9">D&amp;D 5E</text>

  <!-- Party Members Section -->
  <text x="14" y="82" fill="#f0ecc9" font-family="Georgia,serif" font-size="10" opacity="0.8">▾ Party Members</text>
  <text x="24" y="100" fill="#f0ecc9" font-family="Arial,sans-serif" font-size="9" opacity="0.6">Thorin Ironforge</text>
  <rect x="145" y="91" width="24" height="13" rx="2" fill="#e3a72f"/>
  <text x="150" y="101" fill="#503d2e" font-family="Arial,sans-serif" font-size="8" font-weight="bold">DM</text>
  <text x="24" y="118" fill="#f0ecc9" font-family="Arial,sans-serif" font-size="9" opacity="0.6">Elara Moonshadow</text>
  <rect x="135" y="109" width="34" height="13" rx="2" fill="none" stroke="#e3a72f" stroke-width="1"/>
  <text x="139" y="119" fill="#f0ecc9" font-family="Arial,sans-serif" font-size="8">Player</text>
  <text x="24" y="136" fill="#f0ecc9" font-family="Arial,sans-serif" font-size="9" opacity="0.6">Grog the Mighty</text>
  <rect x="135" y="127" width="34" height="13" rx="2" fill="none" stroke="#e3a72f" stroke-width="1"/>
  <text x="139" y="137" fill="#f0ecc9" font-family="Arial,sans-serif" font-size="8">Player</text>

  <!-- Session Notes -->
  <line x1="10" y1="155" x2="190" y2="155" stroke="#e3a72f" stroke-opacity="0.1" stroke-width="1"/>
  <text x="14" y="172" fill="#f0ecc9" font-family="Georgia,serif" font-size="10" opacity="0.8">▸ Session Notes</text>

  <!-- Settings -->
  <line x1="10" y1="185" x2="190" y2="185" stroke="#e3a72f" stroke-opacity="0.1" stroke-width="1"/>
  <text x="14" y="202" fill="#f0ecc9" font-family="Georgia,serif" font-size="10" opacity="0.8">▸ Settings</text>

  <!-- FG Status -->
  <line x1="0" y1="480" x2="200" y2="480" stroke="#e3a72f" stroke-opacity="0.3" stroke-width="1"/>
  <rect x="10" y="490" width="180" height="20" rx="4" fill="#1e1610" fill-opacity="0.5"/>
  <circle cx="22" cy="500" r="4" fill="#888"/>
  <text x="32" y="504" fill="#f0ecc9" font-family="Arial,sans-serif" font-size="9" opacity="0.6">FG: Not Connected</text>
  <rect x="10" y="514" width="180" height="20" rx="4" fill="#1e1610" fill-opacity="0.5"/>
  <circle cx="22" cy="524" r="4" fill="#888"/>
  <text x="32" y="528" fill="#f0ecc9" font-family="Arial,sans-serif" font-size="9" opacity="0.6">Voice Inactive</text>

  <!-- Center Column -->
  <!-- Scene Display (top) -->
  <rect x="204" y="4" width="468" height="180" rx="4" fill="#0a0806" stroke="#e3a72f" stroke-width="2"/>
  <rect x="208" y="8" width="460" height="172" rx="2" fill="#0a0806" stroke="#e3a72f" stroke-width="1" stroke-opacity="0.3" stroke-dasharray="4,2"/>
  <!-- Scene placeholder -->
  <rect x="212" y="12" width="452" height="145" fill="#1a1510"/>
  <text x="438" y="30" fill="#f0ecc9" font-family="Arial,sans-serif" font-size="9" text-anchor="middle" opacity="0.5">🖼️ Scene Display (16:9)</text>
  <!-- Mountains silhouette -->
  <polygon points="212,157 280,90 330,120 400,70 450,110 520,60 580,100 620,80 664,157" fill="#2a2520" opacity="0.6"/>
  <polygon points="212,157 260,110 320,130 380,95 440,125 500,85 560,115 620,95 664,157" fill="#1e1a15" opacity="0.5"/>
  <!-- Source label -->
  <rect x="216" y="16" width="70" height="14" rx="2" fill="#000" fill-opacity="0.6"/>
  <text x="221" y="26" fill="#f0ecc9" font-family="Arial,sans-serif" font-size="8" opacity="0.7">AI Generated</text>
  <!-- Caption -->
  <rect x="212" y="160" width="452" height="16" fill="#1e1610"/>
  <text x="222" y="172" fill="#f0ecc9" font-family="Georgia,serif" font-size="9" font-style="italic" opacity="0.7">The cavern opens before you, stalactites dripping with phosphorescent moss</text>

  <!-- Chat Window (bottom) -->
  <rect x="204" y="190" width="468" height="346" rx="4" fill="url(#chat-bg)" stroke="#e3a72f" stroke-width="1" stroke-opacity="0.4"/>

  <!-- System message -->
  <rect x="340" y="198" width="196" height="18" rx="9" fill="#503d2e" fill-opacity="0.3"/>
  <text x="438" y="211" fill="#f0ecc9" font-family="Arial,sans-serif" font-size="8" text-anchor="middle" opacity="0.4">Session started. Welcome, adventurers!</text>

  <!-- Narrator agent message (left) -->
  <rect x="212" y="222" width="52" height="14" rx="3" fill="#92700a" fill-opacity="0.2"/>
  <text x="218" y="233" fill="#eab308" font-family="Arial,sans-serif" font-size="8" font-weight="bold">Narrator</text>
  <rect x="212" y="238" width="320" height="45" rx="6" fill="#503d2e" fill-opacity="0.4"/>
  <text x="220" y="253" fill="#f0ecc9" font-family="Georgia,serif" font-size="9" opacity="0.9">The evening air is thick with the scent of pine</text>
  <text x="220" y="266" fill="#f0ecc9" font-family="Georgia,serif" font-size="9" opacity="0.9">as your party arrives at the Mistwood Forest...</text>
  <rect x="220" y="270" width="80" height="10" rx="2" fill="#e3a72f" fill-opacity="0.1"/>
  <text x="226" y="278" fill="#e3a72f" font-family="Arial,sans-serif" font-size="7">🖼 Scene updated</text>
  <text x="212" y="296" fill="#f0ecc9" font-family="Arial,sans-serif" font-size="7" opacity="0.3">9 min ago</text>

  <!-- Player typed message (right) -->
  <text x="660" y="310" fill="#f0ecc9" font-family="Arial,sans-serif" font-size="8" text-anchor="end" opacity="0.6">Thorin</text>
  <rect x="415" y="314" width="245" height="28" rx="6" fill="#058789" fill-opacity="0.3"/>
  <text x="423" y="332" fill="#f0ecc9" font-family="Georgia,serif" font-size="9" opacity="0.9">I light a torch and take the lead down the path.</text>
  <text x="650" y="352" fill="#f0ecc9" font-family="Arial,sans-serif" font-size="7" text-anchor="end" opacity="0.3">⌨ 8 min ago</text>

  <!-- Player Discord voice message (right) -->
  <text x="660" y="365" fill="#f0ecc9" font-family="Arial,sans-serif" font-size="8" text-anchor="end" opacity="0.6">Elara</text>
  <rect x="380" y="369" width="280" height="28" rx="6" fill="#058789" fill-opacity="0.3"/>
  <text x="388" y="387" fill="#f0ecc9" font-family="Georgia,serif" font-size="9" opacity="0.9">I cast Detect Magic as we walk and look for auras.</text>
  <text x="650" y="407" fill="#f0ecc9" font-family="Arial,sans-serif" font-size="7" text-anchor="end" opacity="0.3">🎤 6 min ago</text>

  <!-- NPC Dialogue agent message (left) -->
  <rect x="212" y="415" width="74" height="14" rx="3" fill="#065f46" fill-opacity="0.2"/>
  <text x="218" y="426" fill="#34d399" font-family="Arial,sans-serif" font-size="8" font-weight="bold">NPC Dialogue</text>
  <rect x="212" y="431" width="300" height="30" rx="6" fill="#503d2e" fill-opacity="0.4"/>
  <text x="220" y="446" fill="#f0ecc9" font-family="Georgia,serif" font-size="9" font-style="italic" opacity="0.9">"Who dares enter the Mistwood at this hour?</text>
  <text x="220" y="458" fill="#f0ecc9" font-family="Georgia,serif" font-size="9" font-style="italic" opacity="0.9">Turn back, or face what sleeps beneath..."</text>

  <!-- Input bar -->
  <rect x="204" y="492" width="468" height="44" fill="#1e1610" stroke="#e3a72f" stroke-width="1" stroke-opacity="0.2"/>
  <rect x="212" y="500" width="400" height="28" rx="4" fill="#503d2e" fill-opacity="0.6" stroke="#e3a72f" stroke-width="1" stroke-opacity="0.3"/>
  <text x="222" y="518" fill="#f0ecc9" font-family="Arial,sans-serif" font-size="10" opacity="0.3">What do you do...</text>
  <text x="598" y="517" fill="#f0ecc9" font-family="Arial,sans-serif" font-size="9" opacity="0.2">🎤</text>
  <rect x="620" y="500" width="44" height="28" rx="4" fill="#503d2e" stroke="#e3a72f" stroke-width="1" stroke-opacity="0.4"/>
  <text x="636" y="518" fill="#e3a72f" font-family="Arial,sans-serif" font-size="12" text-anchor="middle">➤</text>

  <!-- Right Panel (~320px) -->
  <rect x="676" y="0" width="284" height="540" fill="#503d2e" stroke="#e3a72f" stroke-width="2 0 0 2"/>

  <!-- Character Sheet Header -->
  <text x="690" y="22" fill="#e3a72f" font-family="Georgia,serif" font-size="10">Character Sheet</text>
  <rect x="684" y="30" width="268" height="230" rx="4" fill="url(#parchment)" stroke="#e3a72f" stroke-width="1" stroke-opacity="0.4"/>
  <text x="694" y="50" fill="#d54b1a" font-family="Georgia,serif" font-size="13" font-weight="bold">Thorin Ironforge</text>
  <text x="694" y="64" fill="#503d2e" font-family="Arial,sans-serif" font-size="8" opacity="0.7">Mountain Dwarf Fighter (Champion) · Level 5</text>
  <text x="694" y="76" fill="#503d2e" font-family="Arial,sans-serif" font-size="8" opacity="0.5">Soldier · Lawful Good</text>

  <!-- Stats grid -->
  <g transform="translate(694, 86)">
    <rect x="0" y="0" width="38" height="30" rx="2" fill="#503d2e" fill-opacity="0.1"/>
    <text x="19" y="11" fill="#503d2e" font-family="Arial,sans-serif" font-size="7" text-anchor="middle" opacity="0.6">STR</text>
    <text x="19" y="25" fill="#503d2e" font-family="Georgia,serif" font-size="12" text-anchor="middle" font-weight="bold">18</text>
    <rect x="42" y="0" width="38" height="30" rx="2" fill="#503d2e" fill-opacity="0.1"/>
    <text x="61" y="11" fill="#503d2e" font-family="Arial,sans-serif" font-size="7" text-anchor="middle" opacity="0.6">DEX</text>
    <text x="61" y="25" fill="#503d2e" font-family="Georgia,serif" font-size="12" text-anchor="middle" font-weight="bold">12</text>
    <rect x="84" y="0" width="38" height="30" rx="2" fill="#503d2e" fill-opacity="0.1"/>
    <text x="103" y="11" fill="#503d2e" font-family="Arial,sans-serif" font-size="7" text-anchor="middle" opacity="0.6">CON</text>
    <text x="103" y="25" fill="#503d2e" font-family="Georgia,serif" font-size="12" text-anchor="middle" font-weight="bold">16</text>
    <rect x="126" y="0" width="38" height="30" rx="2" fill="#503d2e" fill-opacity="0.1"/>
    <text x="145" y="11" fill="#503d2e" font-family="Arial,sans-serif" font-size="7" text-anchor="middle" opacity="0.6">INT</text>
    <text x="145" y="25" fill="#503d2e" font-family="Georgia,serif" font-size="12" text-anchor="middle" font-weight="bold">10</text>
    <rect x="168" y="0" width="38" height="30" rx="2" fill="#503d2e" fill-opacity="0.1"/>
    <text x="187" y="11" fill="#503d2e" font-family="Arial,sans-serif" font-size="7" text-anchor="middle" opacity="0.6">WIS</text>
    <text x="187" y="25" fill="#503d2e" font-family="Georgia,serif" font-size="12" text-anchor="middle" font-weight="bold">13</text>
    <rect x="210" y="0" width="38" height="30" rx="2" fill="#503d2e" fill-opacity="0.1"/>
    <text x="229" y="11" fill="#503d2e" font-family="Arial,sans-serif" font-size="7" text-anchor="middle" opacity="0.6">CHA</text>
    <text x="229" y="25" fill="#503d2e" font-family="Georgia,serif" font-size="12" text-anchor="middle" font-weight="bold">8</text>
  </g>

  <!-- Combat stats -->
  <g transform="translate(694, 126)">
    <rect x="0" y="0" width="60" height="32" rx="2" fill="#058789" fill-opacity="0.1"/>
    <text x="30" y="12" fill="#503d2e" font-family="Arial,sans-serif" font-size="7" text-anchor="middle" opacity="0.6">AC</text>
    <text x="30" y="27" fill="#058789" font-family="Georgia,serif" font-size="14" text-anchor="middle" font-weight="bold">18</text>
    <rect x="66" y="0" width="60" height="32" rx="2" fill="#16a34a" fill-opacity="0.1"/>
    <text x="96" y="12" fill="#503d2e" font-family="Arial,sans-serif" font-size="7" text-anchor="middle" opacity="0.6">HP</text>
    <text x="96" y="27" fill="#16a34a" font-family="Georgia,serif" font-size="14" text-anchor="middle" font-weight="bold">45/52</text>
    <rect x="132" y="0" width="60" height="32" rx="2" fill="#503d2e" fill-opacity="0.1"/>
    <text x="162" y="12" fill="#503d2e" font-family="Arial,sans-serif" font-size="7" text-anchor="middle" opacity="0.6">Hit Dice</text>
    <text x="162" y="27" fill="#503d2e" font-family="Georgia,serif" font-size="11" text-anchor="middle">5d10</text>
    <rect x="198" y="0" width="52" height="32" rx="2" fill="#e3a72f" fill-opacity="0.1"/>
    <text x="224" y="12" fill="#503d2e" font-family="Arial,sans-serif" font-size="7" text-anchor="middle" opacity="0.6">Prof.</text>
    <text x="224" y="27" fill="#e3a72f" font-family="Georgia,serif" font-size="14" text-anchor="middle" font-weight="bold">+3</text>
  </g>

  <!-- Features -->
  <text x="694" y="178" fill="#503d2e" font-family="Arial,sans-serif" font-size="8" font-weight="bold" opacity="0.8">Features &amp; Traits</text>
  <text x="702" y="192" fill="#503d2e" font-family="Arial,sans-serif" font-size="8" opacity="0.7">• Second Wind</text>
  <text x="702" y="204" fill="#503d2e" font-family="Arial,sans-serif" font-size="8" opacity="0.7">• Action Surge</text>
  <text x="702" y="216" fill="#503d2e" font-family="Arial,sans-serif" font-size="8" opacity="0.7">• Improved Critical</text>
  <text x="702" y="228" fill="#503d2e" font-family="Arial,sans-serif" font-size="8" opacity="0.7">• Extra Attack</text>
  <text x="694" y="248" fill="#503d2e" font-family="Arial,sans-serif" font-size="8" font-weight="bold" opacity="0.8">Saves: Strength, Constitution</text>

  <!-- Divider -->
  <line x1="684" y1="268" x2="952" y2="268" stroke="#e3a72f" stroke-opacity="0.2" stroke-width="1"/>

  <!-- Party Status -->
  <text x="690" y="285" fill="#e3a72f" font-family="Georgia,serif" font-size="10">Party Status</text>
  <rect x="684" y="292" width="268" height="75" rx="4" fill="url(#parchment)" stroke="#e3a72f" stroke-width="1" stroke-opacity="0.4"/>
  <circle cx="696" cy="310" r="3" fill="#22c55e"/>
  <text x="706" y="313" fill="#503d2e" font-family="Arial,sans-serif" font-size="9" font-weight="bold">Thorin Ironforge</text>
  <text x="846" y="313" fill="#503d2e" font-family="Arial,sans-serif" font-size="8" opacity="0.6">Fighter</text>
  <text x="910" y="313" fill="#503d2e" font-family="Arial,sans-serif" font-size="8" opacity="0.7">45/52 HP</text>
  <circle cx="696" cy="330" r="3" fill="#22c55e"/>
  <text x="706" y="333" fill="#503d2e" font-family="Arial,sans-serif" font-size="9" font-weight="bold">Elara Moonshadow</text>
  <text x="846" y="333" fill="#503d2e" font-family="Arial,sans-serif" font-size="8" opacity="0.6">Wizard</text>
  <text x="910" y="333" fill="#503d2e" font-family="Arial,sans-serif" font-size="8" opacity="0.7">22/28 HP</text>
  <circle cx="696" cy="350" r="3" fill="#f59e0b"/>
  <text x="706" y="353" fill="#503d2e" font-family="Arial,sans-serif" font-size="9" font-weight="bold">Grog the Mighty</text>
  <text x="846" y="353" fill="#503d2e" font-family="Arial,sans-serif" font-size="8" opacity="0.6">Barbarian</text>
  <text x="910" y="353" fill="#503d2e" font-family="Arial,sans-serif" font-size="8" opacity="0.7">0/67 HP</text>

  <!-- Divider -->
  <line x1="684" y1="375" x2="952" y2="375" stroke="#e3a72f" stroke-opacity="0.2" stroke-width="1"/>

  <!-- Session Notes -->
  <text x="690" y="392" fill="#e3a72f" font-family="Georgia,serif" font-size="10">Session Notes</text>
  <rect x="684" y="398" width="268" height="135" rx="4" fill="url(#parchment)" stroke="#e3a72f" stroke-width="1" stroke-opacity="0.4"/>
  <text x="694" y="418" fill="#503d2e" font-family="Arial,sans-serif" font-size="9" opacity="0.4">Jot down notes during the session...</text>

  <!-- Panel labels (for clarity) -->
  <rect x="10" y="510" width="0" height="0"/>
</svg>
