<svg xmlns="http://www.w3.org/2000/svg" viewBox="0 0 960 540" width="960" height="540">
  <defs>
    <linearGradient id="sidebar-bg" x1="0" y1="0" x2="0" y2="1">
      <stop offset="0%" stop-color="#503d2e"/>
      <stop offset="100%" stop-color="#3a2a1e"/>
    </linearGradient>
    <linearGradient id="parchment" x1="0" y1="0" x2="0" y2="1">
      <stop offset="0%" stop-color="#f0ecc9"/>
      <stop offset="100%" stop-color="#e0dbb5"/>
    </linearGradient>
    <linearGradient id="chat-bg" x1="0" y1="0" x2="0" y2="1">
      <stop offset="0%" stop-color="#2a1f16"/>
      <stop offset="100%" stop-color="#1e1610"/>
    </linearGradient>
  </defs>

  <!-- Background -->
  <rect width="960" height="540" fill="#1e1610"/>

  <!-- Left Sidebar (~240px) -->
  <rect x="0" y="0" width="200" height="540" fill="url(#sidebar-bg)"/>
  <!-- Campaign Header -->
  <rect x="0" y="0" width="200" height="60" fill="#3a2a1e"/>
  <line x1="0" y1="60" x2="200" y2="60" stroke="#e3a72f" stroke-opacity="0.3" stroke-width="1"/>
  <text x="14" y="24" fill="#e3a72f" font-family="Georgia,serif" font-size="11" font-weight="bold">⚔ Lost Mines of Phandelver</text>
  <rect x="14" y="34" width="55" height="16" rx="3" fill="#058789"/>
  <text x="22" y="46" fill="#f0ecc9" font-family="Arial,sans-serif" font-size="9">D&amp;D 5E</text>

  <!-- Party Members Section -->
  <text x="14" y="82" fill="#f0ecc9" font-family="Georgia,serif" font-size="10" opacity="0.8">▾ Party Members</text>
  <text x="24" y="100" fill="#f0ecc9" font-family="Arial,sans-serif" font-size="9" opacity="0.6">Thorin Ironforge</text>
  <rect x="145" y="91" width="24" height="13" rx="2" fill="#e3a72f"/>
  <text x="150" y="101" fill="#503d2e" font-family="Arial,sans-serif" font-size="8" font-weight="bold">DM</text>
  <text x="24" y="118" fill="#f0ecc9" font-family="Arial,sans-serif" font-size="9" opacity="0.6">Elara Moonshadow</text>
  <rect x="135" y="109" width="34" height="13" rx="2" fill="none" stroke="#e3a72f" stroke-width="1"/>
  <text x="139" y="119" fill="#f0ecc9" font-family="Arial,sans-serif" font-size="8">Player</text>
  <text x="24" y="136" fill="#f0ecc9" font-family="Arial,sans-serif" font-size="9" opacity="0.6">Grog the Mighty</text>
  <rect x="135" y="127" width="34" height="13" rx="2" fill="none" stroke="#e3a72f" stroke-width="1"/>
  <text x="139" y="137" fill="#f0ecc9" font-family="Arial,sans-serif" font-size="8">Player</text>

  <!-- Session Notes -->
  <line x1="10" y1="155" x2="190" y2="155" stroke="#e3a72f" stroke-opacity="0.1" stroke-width="1"/>
  <text x="14" y="172" fill="#f0ecc9" font-family="Georgia,serif" font-size="10" opacity="0.8">▸ Session Notes</text>

  <!-- Settings -->
  <line x1="10" y1="185" x2="190" y2="185" stroke="#e3a72f" stroke-opacity="0.1" stroke-width="1"/>
  <text x="14" y="202" fill="#f0ecc9" font-family="Georgia,serif" font-size="10" opacity="0.8">▸ Settings</text>

  <!-- FG Status -->
  <line x1="0" y1="480" x2="200" y2="480" stroke="#e3a72f" stroke-opacity="0.3" stroke-width="1"/>
  <rect x="10" y="490" width="180" height="20" rx="4" fill="#1e1610" fill-opacity="0.5"/>
  <circle cx="22" cy="500" r="4" fill="#888"/>
  <text x="32" y="504" fill="#f0ecc9" font-family="Arial,sans-serif" font-size="9" opacity="0.6">FG: Not Connected</text>
  <rect x="10" y="514" width="180" height="20" rx="4" fill="#1e1610" fill-opacity="0.5"/>
  <circle cx="22" cy="524" r="4" fill="#888"/>
  <text x="32" y="528" fill="#f0ecc9" font-family="Arial,sans-serif" font-size="9" opacity="0.6">Voice Inactive</text>

  <!-- ═══ Center Column: Scene 2/3 top, Chat 1/3 bottom ═══ -->

  <!-- Scene Display (top ~2/3 = 340px) -->
  <rect x="204" y="4" width="468" height="340" rx="4" fill="#0a0806" stroke="#e3a72f" stroke-width="2"/>
  <rect x="208" y="8" width="460" height="332" rx="2" fill="#0a0806" stroke="#e3a72f" stroke-width="1" stroke-opacity="0.3" stroke-dasharray="4,2"/>
  <!-- Scene art area -->
  <rect x="212" y="12" width="452" height="305" fill="#1a1510"/>
  <text x="438" y="30" fill="#f0ecc9" font-family="Arial,sans-serif" font-size="9" text-anchor="middle" opacity="0.5">🖼️ Scene Display</text>
  <!-- Mountains silhouette (larger to fill) -->
  <polygon points="212,317 280,180 340,230 420,140 480,200 540,100 600,170 640,130 664,317" fill="#2a2520" opacity="0.6"/>
  <polygon points="212,317 260,200 330,240 400,170 460,220 520,150 580,200 630,170 664,317" fill="#1e1a15" opacity="0.5"/>
  <!-- Stars -->
  <circle cx="280" cy="60" r="1" fill="#f0ecc9" opacity="0.4"/>
  <circle cx="400" cy="45" r="1.5" fill="#f0ecc9" opacity="0.5"/>
  <circle cx="520" cy="70" r="1" fill="#f0ecc9" opacity="0.3"/>
  <circle cx="600" cy="50" r="1" fill="#f0ecc9" opacity="0.4"/>
  <circle cx="350" cy="80" r="1" fill="#f0ecc9" opacity="0.3"/>
  <circle cx="480" cy="55" r="1.5" fill="#f0ecc9" opacity="0.4"/>
  <!-- Source label -->
  <rect x="216" y="16" width="70" height="14" rx="2" fill="#000" fill-opacity="0.6"/>
  <text x="221" y="26" fill="#f0ecc9" font-family="Arial,sans-serif" font-size="8" opacity="0.7">AI Generated</text>
  <!-- Expand / Close buttons -->
  <rect x="630" y="16" width="14" height="14" rx="2" fill="#000" fill-opacity="0.5"/>
  <text x="634" y="26" fill="#f0ecc9" font-family="Arial,sans-serif" font-size="9" opacity="0.6">⤢</text>
  <rect x="648" y="16" width="14" height="14" rx="2" fill="#000" fill-opacity="0.5"/>
  <text x="652" y="26" fill="#f0ecc9" font-family="Arial,sans-serif" font-size="9" opacity="0.6">✕</text>
  <!-- Caption -->
  <rect x="212" y="320" width="452" height="18" fill="#1e1610"/>
  <text x="222" y="333" fill="#f0ecc9" font-family="Georgia,serif" font-size="9" font-style="italic" opacity="0.7">The cavern opens before you, stalactites dripping with phosphorescent moss</text>

  <!-- Chat Window (bottom ~1/3 = ~190px) -->
  <rect x="204" y="348" width="468" height="188" rx="4" fill="url(#chat-bg)" stroke="#e3a72f" stroke-width="1" stroke-opacity="0.4"/>

  <!-- System message -->
  <rect x="340" y="354" width="196" height="16" rx="8" fill="#503d2e" fill-opacity="0.3"/>
  <text x="438" y="366" fill="#f0ecc9" font-family="Arial,sans-serif" font-size="7" text-anchor="middle" opacity="0.4">Session started. Welcome, adventurers!</text>

  <!-- Narrator agent message (left) -->
  <rect x="212" y="376" width="52" height="12" rx="3" fill="#92700a" fill-opacity="0.2"/>
  <text x="218" y="386" fill="#eab308" font-family="Arial,sans-serif" font-size="7" font-weight="bold">Narrator</text>
  <rect x="212" y="390" width="300" height="30" rx="5" fill="#503d2e" fill-opacity="0.4"/>
  <text x="219" y="402" fill="#f0ecc9" font-family="Georgia,serif" font-size="8" opacity="0.9">The evening air is thick with the scent of pine</text>
  <text x="219" y="414" fill="#f0ecc9" font-family="Georgia,serif" font-size="8" opacity="0.9">as your party arrives at the Mistwood Forest...</text>
  <text x="212" y="430" fill="#f0ecc9" font-family="Arial,sans-serif" font-size="6" opacity="0.3">9 min ago</text>

  <!-- Player typed message (right) -->
  <text x="660" y="440" fill="#f0ecc9" font-family="Arial,sans-serif" font-size="7" text-anchor="end" opacity="0.6">Thorin</text>
  <rect x="440" y="444" width="220" height="22" rx="5" fill="#058789" fill-opacity="0.3"/>
  <text x="447" y="458" fill="#f0ecc9" font-family="Georgia,serif" font-size="8" opacity="0.9">I light a torch and take the lead down the path.</text>
  <text x="653" y="475" fill="#f0ecc9" font-family="Arial,sans-serif" font-size="6" text-anchor="end" opacity="0.3">⌨ 8 min ago</text>

  <!-- Player Discord voice message (right) -->
  <text x="660" y="485" fill="#f0ecc9" font-family="Arial,sans-serif" font-size="7" text-anchor="end" opacity="0.6">Elara</text>
  <rect x="400" y="489" width="260" height="22" rx="5" fill="#058789" fill-opacity="0.3"/>
  <text x="407" y="503" fill="#f0ecc9" font-family="Georgia,serif" font-size="8" opacity="0.9">I cast Detect Magic as we walk and look for auras.</text>
  <text x="653" y="520" fill="#f0ecc9" font-family="Arial,sans-serif" font-size="6" text-anchor="end" opacity="0.3">🎤 6 min ago</text>

  <!-- Input bar at very bottom of chat -->
  <rect x="204" y="518" width="468" height="18" fill="#1e1610" stroke="#e3a72f" stroke-width="0.5" stroke-opacity="0.2"/>
  <rect x="210" y="520" width="410" height="14" rx="3" fill="#503d2e" fill-opacity="0.6" stroke="#e3a72f" stroke-width="0.5" stroke-opacity="0.3"/>
  <text x="218" y="530" fill="#f0ecc9" font-family="Arial,sans-serif" font-size="8" opacity="0.3">What do you do...</text>
  <rect x="626" y="520" width="38" height="14" rx="3" fill="#503d2e" stroke="#e3a72f" stroke-width="0.5" stroke-opacity="0.4"/>
  <text x="641" y="530" fill="#e3a72f" font-family="Arial,sans-serif" font-size="9" text-anchor="middle">➤</text>

  <!-- ═══ Right Panel (~320px) ═══ -->
  <rect x="676" y="0" width="284" height="540" fill="#503d2e" stroke="#e3a72f" stroke-width="2 0 0 2"/>

  <!-- Party Avatar Buttons -->
  <text x="690" y="18" fill="#e3a72f" font-family="Georgia,serif" font-size="10">Party</text>
  <g transform="translate(690, 26)">
    <!-- Thorin avatar (selected) -->
    <g>
      <rect x="0" y="0" width="52" height="58" rx="4" fill="#e3a72f" fill-opacity="0.15" stroke="#e3a72f" stroke-width="1.5"/>
      <circle cx="26" cy="20" r="14" fill="#058789"/>
      <text x="26" y="24" fill="#f0ecc9" font-family="Arial,sans-serif" font-size="10" text-anchor="middle" font-weight="bold">TI</text>
      <circle cx="38" cy="10" r="4" fill="#22c55e" stroke="#503d2e" stroke-width="1.5"/>
      <text x="26" y="48" fill="#f0ecc9" font-family="Arial,sans-serif" font-size="7" text-anchor="middle" opacity="0.6">Thorin</text>
    </g>
    <!-- Elara avatar -->
    <g transform="translate(60, 0)">
      <rect x="0" y="0" width="52" height="58" rx="4" fill="transparent"/>
      <circle cx="26" cy="20" r="14" fill="#d54b1a"/>
      <text x="26" y="24" fill="#f0ecc9" font-family="Arial,sans-serif" font-size="10" text-anchor="middle" font-weight="bold">EM</text>
      <circle cx="38" cy="10" r="4" fill="#22c55e" stroke="#503d2e" stroke-width="1.5"/>
      <text x="26" y="48" fill="#f0ecc9" font-family="Arial,sans-serif" font-size="7" text-anchor="middle" opacity="0.6">Elara</text>
    </g>
    <!-- Grog avatar -->
    <g transform="translate(120, 0)">
      <rect x="0" y="0" width="52" height="58" rx="4" fill="transparent"/>
      <circle cx="26" cy="20" r="14" fill="#e3a72f"/>
      <text x="26" y="24" fill="#503d2e" font-family="Arial,sans-serif" font-size="10" text-anchor="middle" font-weight="bold">GM</text>
      <circle cx="38" cy="10" r="4" fill="#f59e0b" stroke="#503d2e" stroke-width="1.5"/>
      <text x="26" y="48" fill="#f0ecc9" font-family="Arial,sans-serif" font-size="7" text-anchor="middle" opacity="0.6">Grog</text>
    </g>
  </g>

  <!-- Character Sheet (shown for selected avatar: Thorin) -->
  <rect x="684" y="92" width="268" height="230" rx="4" fill="url(#parchment)" stroke="#e3a72f" stroke-width="1" stroke-opacity="0.4"/>
  <text x="694" y="112" fill="#d54b1a" font-family="Georgia,serif" font-size="13" font-weight="bold">Thorin Ironforge</text>
  <text x="694" y="126" fill="#503d2e" font-family="Arial,sans-serif" font-size="8" opacity="0.7">Mountain Dwarf Fighter (Champion) · Level 5</text>
  <text x="694" y="138" fill="#503d2e" font-family="Arial,sans-serif" font-size="8" opacity="0.5">Soldier · Lawful Good</text>

  <!-- Stats grid -->
  <g transform="translate(694, 146)">
    <rect x="0" y="0" width="38" height="30" rx="2" fill="#503d2e" fill-opacity="0.1"/>
    <text x="19" y="11" fill="#503d2e" font-family="Arial,sans-serif" font-size="7" text-anchor="middle" opacity="0.6">STR</text>
    <text x="19" y="25" fill="#503d2e" font-family="Georgia,serif" font-size="12" text-anchor="middle" font-weight="bold">18</text>
    <rect x="42" y="0" width="38" height="30" rx="2" fill="#503d2e" fill-opacity="0.1"/>
    <text x="61" y="11" fill="#503d2e" font-family="Arial,sans-serif" font-size="7" text-anchor="middle" opacity="0.6">DEX</text>
    <text x="61" y="25" fill="#503d2e" font-family="Georgia,serif" font-size="12" text-anchor="middle" font-weight="bold">12</text>
    <rect x="84" y="0" width="38" height="30" rx="2" fill="#503d2e" fill-opacity="0.1"/>
    <text x="103" y="11" fill="#503d2e" font-family="Arial,sans-serif" font-size="7" text-anchor="middle" opacity="0.6">CON</text>
    <text x="103" y="25" fill="#503d2e" font-family="Georgia,serif" font-size="12" text-anchor="middle" font-weight="bold">16</text>
    <rect x="126" y="0" width="38" height="30" rx="2" fill="#503d2e" fill-opacity="0.1"/>
    <text x="145" y="11" fill="#503d2e" font-family="Arial,sans-serif" font-size="7" text-anchor="middle" opacity="0.6">INT</text>
    <text x="145" y="25" fill="#503d2e" font-family="Georgia,serif" font-size="12" text-anchor="middle" font-weight="bold">10</text>
    <rect x="168" y="0" width="38" height="30" rx="2" fill="#503d2e" fill-opacity="0.1"/>
    <text x="187" y="11" fill="#503d2e" font-family="Arial,sans-serif" font-size="7" text-anchor="middle" opacity="0.6">WIS</text>
    <text x="187" y="25" fill="#503d2e" font-family="Georgia,serif" font-size="12" text-anchor="middle" font-weight="bold">13</text>
    <rect x="210" y="0" width="38" height="30" rx="2" fill="#503d2e" fill-opacity="0.1"/>
    <text x="229" y="11" fill="#503d2e" font-family="Arial,sans-serif" font-size="7" text-anchor="middle" opacity="0.6">CHA</text>
    <text x="229" y="25" fill="#503d2e" font-family="Georgia,serif" font-size="12" text-anchor="middle" font-weight="bold">8</text>
  </g>

  <!-- Combat stats -->
  <g transform="translate(694, 186)">
    <rect x="0" y="0" width="60" height="32" rx="2" fill="#058789" fill-opacity="0.1"/>
    <text x="30" y="12" fill="#503d2e" font-family="Arial,sans-serif" font-size="7" text-anchor="middle" opacity="0.6">AC</text>
    <text x="30" y="27" fill="#058789" font-family="Georgia,serif" font-size="14" text-anchor="middle" font-weight="bold">18</text>
    <rect x="66" y="0" width="60" height="32" rx="2" fill="#16a34a" fill-opacity="0.1"/>
    <text x="96" y="12" fill="#503d2e" font-family="Arial,sans-serif" font-size="7" text-anchor="middle" opacity="0.6">HP</text>
    <text x="96" y="27" fill="#16a34a" font-family="Georgia,serif" font-size="14" text-anchor="middle" font-weight="bold">45/52</text>
    <rect x="132" y="0" width="60" height="32" rx="2" fill="#503d2e" fill-opacity="0.1"/>
    <text x="162" y="12" fill="#503d2e" font-family="Arial,sans-serif" font-size="7" text-anchor="middle" opacity="0.6">Hit Dice</text>
    <text x="162" y="27" fill="#503d2e" font-family="Georgia,serif" font-size="11" text-anchor="middle">5d10</text>
    <rect x="198" y="0" width="52" height="32" rx="2" fill="#e3a72f" fill-opacity="0.1"/>
    <text x="224" y="12" fill="#503d2e" font-family="Arial,sans-serif" font-size="7" text-anchor="middle" opacity="0.6">Prof.</text>
    <text x="224" y="27" fill="#e3a72f" font-family="Georgia,serif" font-size="14" text-anchor="middle" font-weight="bold">+3</text>
  </g>

  <!-- Features -->
  <text x="694" y="238" fill="#503d2e" font-family="Arial,sans-serif" font-size="8" font-weight="bold" opacity="0.8">Features &amp; Traits</text>
  <text x="702" y="252" fill="#503d2e" font-family="Arial,sans-serif" font-size="8" opacity="0.7">• Second Wind</text>
  <text x="702" y="264" fill="#503d2e" font-family="Arial,sans-serif" font-size="8" opacity="0.7">• Action Surge</text>
  <text x="702" y="276" fill="#503d2e" font-family="Arial,sans-serif" font-size="8" opacity="0.7">• Improved Critical</text>
  <text x="702" y="288" fill="#503d2e" font-family="Arial,sans-serif" font-size="8" opacity="0.7">• Extra Attack</text>
  <text x="694" y="308" fill="#503d2e" font-family="Arial,sans-serif" font-size="8" font-weight="bold" opacity="0.8">Saves: Strength, Constitution</text>

  <!-- Divider -->
  <line x1="684" y1="328" x2="952" y2="328" stroke="#e3a72f" stroke-opacity="0.2" stroke-width="1"/>

  <!-- Party Status -->
  <text x="690" y="345" fill="#e3a72f" font-family="Georgia,serif" font-size="10">Party Status</text>
  <rect x="684" y="352" width="268" height="75" rx="4" fill="url(#parchment)" stroke="#e3a72f" stroke-width="1" stroke-opacity="0.4"/>
  <circle cx="696" cy="370" r="3" fill="#22c55e"/>
  <text x="706" y="373" fill="#503d2e" font-family="Arial,sans-serif" font-size="9" font-weight="bold">Thorin Ironforge</text>
  <text x="846" y="373" fill="#503d2e" font-family="Arial,sans-serif" font-size="8" opacity="0.6">Fighter</text>
  <text x="910" y="373" fill="#503d2e" font-family="Arial,sans-serif" font-size="8" opacity="0.7">45/52 HP</text>
  <circle cx="696" cy="390" r="3" fill="#22c55e"/>
  <text x="706" y="393" fill="#503d2e" font-family="Arial,sans-serif" font-size="9" font-weight="bold">Elara Moonshadow</text>
  <text x="846" y="393" fill="#503d2e" font-family="Arial,sans-serif" font-size="8" opacity="0.6">Wizard</text>
  <text x="910" y="393" fill="#503d2e" font-family="Arial,sans-serif" font-size="8" opacity="0.7">22/28 HP</text>
  <circle cx="696" cy="410" r="3" fill="#f59e0b"/>
  <text x="706" y="413" fill="#503d2e" font-family="Arial,sans-serif" font-size="9" font-weight="bold">Grog the Mighty</text>
  <text x="846" y="413" fill="#503d2e" font-family="Arial,sans-serif" font-size="8" opacity="0.6">Barbarian</text>
  <text x="910" y="413" fill="#503d2e" font-family="Arial,sans-serif" font-size="8" opacity="0.7">0/67 HP</text>

  <!-- Divider -->
  <line x1="684" y1="435" x2="952" y2="435" stroke="#e3a72f" stroke-opacity="0.2" stroke-width="1"/>

  <!-- Session Notes -->
  <text x="690" y="452" fill="#e3a72f" font-family="Georgia,serif" font-size="10">Session Notes</text>
  <rect x="684" y="458" width="268" height="75" rx="4" fill="url(#parchment)" stroke="#e3a72f" stroke-width="1" stroke-opacity="0.4"/>
  <text x="694" y="478" fill="#503d2e" font-family="Arial,sans-serif" font-size="9" opacity="0.4">Jot down notes during the session...</text>
</svg>
